# xmcd CD database file
#
# Track frame offsets:
#	183
#	13058
#	36988
#	60980
#	77498
#	106873
#	126460
#	146153
#	174000
#
# Disc length: 2602 seconds
#
# Revision: 0
# Processed by: cddbd v1.5.2PL0 Copyright (c) Steve Scherf et al.
# Submitted via: CDex 1.70beta2
#
DISCID=6e0a2809
DTITLE=Various Artist - Belly Dance
DYEAR=1987
DGENRE=Orient
TTITLE0=Hoss Bass
TTITLE1=Salamat
TTITLE2=Rakset Al Saoudi
TTITLE3=Alaksar Baladna
TTITLE4=Raspoutin
TTITLE5=Al Souk Al Horra
TTITLE6=Tiki Ya Hawa
TTITLE7=Rokat Alanani
TTITLE8=Awle Ya Rashidi
EXTD=YEAR: 1987
EXTT0=
EXTT1=
EXTT2=
EXTT3=
EXTT4=
EXTT5=
EXTT6=
EXTT7=
EXTT8=
PLAYORDER=
